<svg width="374" height="74" viewBox="0 0 374 74" fill="none" xmlns="http://www.w3.org/2000/svg">
<rect width="371" height="54" transform="translate(0 19.4516) scale(1.00183) rotate(-3)" fill="black"/>
<path d="M19.4557 55.5511L13.1749 35.9365L15.8082 35.7985L20.7671 52.1677L23.9599 35.3713L26.7051 35.2274L31.6641 51.5966L34.8569 34.8002L37.5181 34.6607L33.322 54.8243L30.2967 54.9829L25.5674 39.7814L22.4531 55.394L19.4557 55.5511ZM43.2391 54.6417C41.7078 54.7219 40.4659 54.4312 39.5137 53.7695C38.5801 53.1068 38.08 52.1405 38.0134 50.8706C37.9469 49.6007 38.268 48.582 38.9769 47.8145C39.6857 47.0471 40.8447 46.4713 42.4537 46.0874L47.6688 44.8309C47.6032 43.5797 47.2555 42.6616 46.6256 42.0766C46.0143 41.4907 45.1204 41.2285 43.9439 41.2902C42.9168 41.344 42.1166 41.6201 41.5435 42.1183C40.9694 42.5978 40.5928 43.2729 40.4137 44.1437L37.9103 44.0783C38.117 42.663 38.7301 41.4979 39.7496 40.5831C40.7867 39.6486 42.1457 39.1373 43.8265 39.0492C45.7313 38.9493 47.2164 39.4146 48.2816 40.4449C49.3459 41.4565 49.9274 42.9055 50.0263 44.7917L50.3478 50.9265C50.3654 51.2626 50.4341 51.5025 50.554 51.646C50.6916 51.7699 50.9004 51.8245 51.1806 51.8098L51.7688 51.7789L51.8775 53.8519C51.8038 53.8745 51.6829 53.8902 51.5148 53.899C51.3477 53.9265 51.1708 53.9451 50.984 53.9549C50.3117 53.9901 49.7554 53.9163 49.3151 53.7334C48.8925 53.5308 48.5761 53.2103 48.3658 52.7719C48.1546 52.3148 48.0294 51.7128 47.9903 50.9657L48.2733 51.0071C48.1759 51.6489 47.8888 52.2445 47.4119 52.7938C46.9341 53.3245 46.3296 53.7588 45.5982 54.0967C44.8659 54.416 44.0795 54.5977 43.2391 54.6417ZM43.3546 52.557C44.3444 52.5051 45.175 52.2743 45.8464 51.8646C46.5355 51.4352 47.0497 50.884 47.3889 50.2107C47.7272 49.5189 47.8748 48.7621 47.8317 47.9404L47.7759 46.8759L43.0047 48.0248C42.006 48.2644 41.3209 48.5906 40.9493 49.0033C40.5953 49.3964 40.4345 49.9011 40.4668 50.5173C40.503 51.2083 40.7742 51.7372 41.2803 52.1039C41.8041 52.451 42.4955 52.602 43.3546 52.557ZM53.1346 53.786L52.3565 38.9392L54.5135 38.8262L54.7957 42.6035L54.5023 42.3661C54.6431 41.4785 54.9322 40.7424 55.3698 40.1577C55.8063 39.5543 56.344 39.0954 56.983 38.781C57.6406 38.4657 58.3523 38.2879 59.118 38.2478C60.2571 38.1881 61.2041 38.3913 61.9589 38.8573C62.7323 39.3224 63.319 39.9752 63.7188 40.8156C64.1364 41.6365 64.3725 42.5698 64.4273 43.6156L64.928 53.168L62.5749 53.2913L62.1095 44.4112C62.0615 43.4961 61.9094 42.7363 61.653 42.1318C61.4143 41.5076 61.0531 41.049 60.5696 40.756C60.0851 40.4443 59.4694 40.308 58.7224 40.3472C57.5832 40.4069 56.6592 40.8205 55.9503 41.5879C55.2592 42.3358 54.9498 43.4007 55.0222 44.7826L55.4876 53.6627L53.1346 53.786ZM72.3238 52.7804C70.9792 52.8508 69.9639 52.595 69.278 52.013C68.6107 51.43 68.2428 50.4849 68.1743 49.1776L67.4138 34.667L69.7669 34.5436L70.5245 48.9983C70.5597 49.6706 70.7336 50.1296 71.0461 50.3754C71.3586 50.6212 71.823 50.728 72.4392 50.6957L74.5682 50.5841L74.6769 52.657L72.3238 52.7804ZM65.5195 40.328L65.4109 38.2551L73.8988 37.8102L74.0074 39.8832L65.5195 40.328ZM82.3972 52.2524L81.3549 32.3633L83.764 32.2371L84.8063 52.1262L82.3972 52.2524ZM88.4843 51.9334L87.7062 37.0866L89.8632 36.9736L90.1455 40.7509L89.8521 40.5135C89.9929 39.6259 90.282 38.8898 90.7195 38.3051C91.1561 37.7017 91.6938 37.2428 92.3328 36.9284C92.9904 36.6131 93.7021 36.4353 94.4677 36.3952C95.6069 36.3355 96.5539 36.5387 97.3087 37.0047C98.0821 37.4698 98.6687 38.1226 99.0686 38.963C99.4861 39.7838 99.7223 40.7172 99.7771 41.763L100.278 51.3153L97.9247 51.4387L97.4593 42.5586C97.4113 41.6435 97.2591 40.8837 97.0027 40.2792C96.764 39.655 96.4029 39.1964 95.9194 38.9034C95.4349 38.5917 94.8192 38.4554 94.0721 38.4946C92.933 38.5543 92.0089 38.9679 91.3001 39.7353C90.609 40.4832 90.2996 41.5481 90.372 42.93L90.8374 51.8101L88.4843 51.9334ZM106.832 45.3258C106.762 43.9812 106.912 42.9059 107.281 42.1C107.669 41.2745 108.332 40.5375 109.272 39.889C109.977 39.4026 110.507 38.9815 110.863 38.6258C111.237 38.2504 111.479 37.8726 111.59 37.4922C111.701 37.0932 111.741 36.6135 111.712 36.0533C111.661 35.0822 111.292 34.2962 110.605 33.6955C109.937 33.0939 109.033 32.8229 107.894 32.8826C106.512 32.955 105.466 33.3656 104.756 34.1144C104.065 34.8623 103.68 35.9124 103.601 37.2648L101.071 37.2289C101.119 35.9905 101.416 34.8794 101.964 33.8956C102.511 32.9118 103.275 32.1228 104.255 31.5283C105.236 30.9339 106.407 30.6009 107.77 30.5295C108.984 30.4659 110.062 30.6529 111.002 31.0905C111.961 31.5271 112.725 32.1612 113.293 32.9929C113.861 33.8245 114.174 34.8006 114.233 35.9211C114.274 36.7055 114.179 37.394 113.948 37.9866C113.735 38.5783 113.38 39.1306 112.883 39.6435C112.385 40.1565 111.749 40.6955 110.973 41.2605C110.252 41.7852 109.765 42.3257 109.513 42.8819C109.28 43.4372 109.19 44.2097 109.242 45.1995L106.832 45.3258ZM106.679 50.9799L106.513 47.8144L109.679 47.6485L109.845 50.814L106.679 50.9799ZM120.983 50.2303L127.111 29.9653L130.361 29.795L138.575 49.3083L135.941 49.4463L133.656 43.8919L125.308 44.3294L123.616 50.0923L120.983 50.2303ZM125.997 41.9338L132.72 41.5814L128.846 31.9811L125.997 41.9338ZM144.906 49.3136C143.58 49.383 142.439 49.2275 141.483 48.8469C140.545 48.4653 139.795 47.9147 139.233 47.1951C138.689 46.4559 138.354 45.6027 138.228 44.6355L140.685 44.3382C140.881 45.2268 141.302 45.9257 141.946 46.435C142.59 46.9256 143.537 47.1381 144.789 47.0725C145.797 47.0197 146.592 46.8189 147.173 46.4701C147.771 46.1016 148.052 45.5532 148.013 44.8249C147.993 44.4327 147.882 44.1108 147.682 43.8591C147.481 43.6074 147.106 43.4024 146.554 43.2441C146.002 43.067 145.189 42.913 144.114 42.782C142.681 42.595 141.544 42.3362 140.703 42.0058C139.879 41.6557 139.275 41.2098 138.891 40.6681C138.525 40.1068 138.321 39.434 138.28 38.6496C138.21 37.3237 138.639 36.2151 139.566 35.3238C140.492 34.4139 141.852 33.9119 143.644 33.8179C144.858 33.7543 145.888 33.9251 146.733 34.3302C147.596 34.7157 148.28 35.2604 148.785 35.9643C149.308 36.6485 149.666 37.4162 149.861 38.2674L147.404 38.5647C147.265 38.0477 147.036 37.6009 146.716 37.2244C146.396 36.8292 145.987 36.5322 145.49 36.3336C144.992 36.1162 144.406 36.0252 143.734 36.0604C142.669 36.1162 141.896 36.3628 141.413 36.8C140.93 37.2373 140.706 37.7734 140.739 38.4084C140.764 38.8939 140.898 39.2896 141.138 39.5953C141.397 39.8814 141.793 40.1135 142.326 40.2915C142.859 40.4508 143.568 40.5822 144.454 40.6856C145.98 40.8678 147.173 41.1236 148.033 41.4531C148.893 41.7825 149.506 42.2092 149.87 42.7332C150.235 43.2572 150.437 43.9113 150.479 44.6957C150.527 45.6108 150.306 46.4088 149.818 47.0899C149.347 47.7513 148.681 48.273 147.821 48.6552C146.979 49.0364 146.008 49.2558 144.906 49.3136ZM152.498 48.5786L151.456 28.6895L153.809 28.5662L154.491 41.5921L161.3 33.2297L164.438 33.0653L158.913 39.675L165.468 47.8989L162.611 48.0486L157.4 41.3554L154.649 44.5895L154.851 48.4553L152.498 48.5786ZM173.559 47.4748L172.517 27.5857L175.879 27.4095L183.142 44.3322L188.568 26.7445L191.93 26.5683L192.972 46.4574L190.563 46.5837L189.756 31.1766L184.876 46.8817L181.655 47.0505L175.161 31.9415L175.968 47.3486L173.559 47.4748ZM201.931 46.325C200.531 46.3984 199.3 46.1445 198.24 45.5634C197.198 44.9813 196.366 44.126 195.746 42.9975C195.142 41.8493 194.8 40.4909 194.717 38.9222C194.635 37.3535 194.835 35.976 195.315 34.7897C195.815 33.6025 196.543 32.6655 197.5 31.9787C198.474 31.2722 199.642 30.8832 201.006 30.8118C202.294 30.7442 203.45 30.9927 204.472 31.5571C205.493 32.1028 206.305 32.9404 206.907 34.0699C207.528 35.1984 207.882 36.5937 207.969 38.2558L208.006 38.9561L197.221 39.5213C197.397 41.1038 197.88 42.277 198.669 43.0409C199.477 43.8038 200.525 44.1515 201.814 44.084C202.785 44.0331 203.567 43.7674 204.16 43.2869C204.77 42.7867 205.177 42.1568 205.381 41.397L207.912 41.461C207.589 42.8075 206.9 43.9391 205.843 44.856C204.804 45.7531 203.5 46.2428 201.931 46.325ZM197.112 37.4484L205.32 37.0182C205.132 35.5861 204.657 34.553 203.893 33.9188C203.148 33.2837 202.225 32.995 201.123 33.0528C199.984 33.1125 199.06 33.5167 198.35 34.2656C197.658 34.9947 197.245 36.0556 197.112 37.4484ZM216.355 45.232L215.313 25.3429L227.807 24.6881L227.93 27.0412L216.641 27.6328L217.781 26.3371L218.26 35.4693L216.99 34.2999L227.775 33.7347L227.896 36.0317L217.111 36.5969L218.251 35.3012L218.765 45.1057L216.355 45.232ZM236.11 44.5338C234.747 44.6052 233.535 44.3504 232.475 43.7692C231.414 43.1881 230.573 42.3333 229.953 41.2048C229.331 40.0576 228.979 38.6997 228.896 37.1309C228.813 35.5436 229.021 34.1562 229.521 32.969C230.02 31.7818 230.767 30.8438 231.761 30.155C232.755 29.4662 233.933 29.0861 235.297 29.0146C236.66 28.9432 237.863 29.1985 238.904 29.7806C239.965 30.3618 240.805 31.2166 241.426 32.3451C242.047 33.4736 242.399 34.8315 242.483 36.4189C242.565 37.9876 242.357 39.375 241.858 40.5809C241.358 41.7681 240.612 42.7061 239.618 43.3949C238.643 44.0827 237.473 44.4623 236.11 44.5338ZM235.993 42.2927C237.356 42.2213 238.386 41.6804 239.082 40.6702C239.796 39.6403 240.107 38.2662 240.017 36.5481C239.927 34.83 239.474 33.5054 238.657 32.5745C237.859 31.6238 236.778 31.1842 235.414 31.2557C234.051 31.3271 233.012 31.8778 232.299 32.9077C231.584 33.919 231.271 35.2836 231.361 37.0018C231.451 38.7199 231.905 40.0538 232.723 41.0034C233.539 41.9344 234.629 42.3642 235.993 42.2927ZM244.678 43.7477L243.9 28.9009L245.973 28.7922L246.281 32.5401L246.053 32.4678C246.173 31.1881 246.526 30.2426 247.112 29.6314C247.716 29.0005 248.54 28.6577 249.586 28.6028L251.043 28.5265L251.16 30.7675L249.732 30.8424C248.985 30.8815 248.366 31.0544 247.877 31.361C247.405 31.6479 247.053 32.0689 246.82 32.6242C246.604 33.1599 246.518 33.8385 246.561 34.6602L247.031 43.6243L244.678 43.7477ZM257.813 43.0593L263.942 22.7943L267.192 22.624L275.405 42.1373L272.772 42.2753L270.487 36.721L262.139 37.1584L260.446 42.9213L257.813 43.0593ZM262.828 34.7628L269.551 34.4104L265.677 24.8101L262.828 34.7628ZM276.258 42.0926L275.48 27.2458L277.637 27.1328L277.919 30.9101L277.626 30.6727C277.766 29.7851 278.056 29.049 278.493 28.4643C278.93 27.8609 279.467 27.402 280.106 27.0876C280.764 26.7723 281.476 26.5945 282.241 26.5544C283.38 26.4947 284.327 26.6979 285.082 27.1639C285.856 27.629 286.442 28.2818 286.842 29.1222C287.26 29.9431 287.496 30.8764 287.551 31.9222L288.051 41.4746L285.698 41.5979L285.233 32.7178C285.185 31.8027 285.033 31.0429 284.776 30.4384C284.538 29.8142 284.176 29.3556 283.693 29.0626C283.208 28.7509 282.593 28.6146 281.846 28.6538C280.706 28.7135 279.782 29.1271 279.074 29.8945C278.382 30.6424 278.073 31.7073 278.146 33.0892L278.611 41.9693L276.258 42.0926ZM297.073 41.0018L296.031 21.1126L298.44 20.9864L299.482 40.8755L297.073 41.0018ZM303.16 40.6827L302.382 25.8359L304.539 25.7229L304.821 29.5002L304.528 29.2628C304.669 28.3753 304.958 27.6391 305.395 27.0544C305.832 26.451 306.369 25.9921 307.008 25.6777C307.666 25.3624 308.378 25.1846 309.143 25.1445C310.283 25.0848 311.23 25.288 311.984 25.754C312.758 26.2191 313.344 26.8719 313.744 27.7124C314.162 28.5332 314.398 29.4665 314.453 30.5123L314.953 40.0647L312.6 40.188L312.135 31.3079C312.087 30.3928 311.935 29.633 311.678 29.0285C311.44 28.4043 311.079 27.9457 310.595 27.6527C310.111 27.341 309.495 27.2047 308.748 27.2439C307.609 27.3036 306.685 27.7172 305.976 28.4847C305.285 29.2325 304.975 30.2974 305.048 31.6794L305.513 40.5594L303.16 40.6827ZM320.861 39.7551L314.676 25.1916L317.253 25.0566L322.219 37.2682L325.881 24.6044L328.458 24.4693L323.83 39.5995L320.861 39.7551ZM330.423 39.2539L329.645 24.4071L331.998 24.2838L332.776 39.1306L330.423 39.2539ZM329.467 22.085L329.323 19.3397L331.789 19.2106L331.932 21.9558L329.467 22.085ZM340.175 38.7429C338.83 38.8134 337.815 38.5576 337.129 37.9756C336.461 37.3925 336.094 36.4474 336.025 35.1401L335.265 20.6295L337.618 20.5062L338.375 34.9608C338.41 35.6331 338.584 36.0922 338.897 36.338C339.209 36.5837 339.674 36.6905 340.29 36.6582L342.419 36.5466L342.528 38.6196L340.175 38.7429ZM333.37 26.2905L333.262 24.2176L341.75 23.7728L341.858 25.8457L333.37 26.2905ZM349.688 38.5814C348.287 38.6548 347.057 38.4009 345.996 37.8198C344.955 37.2377 344.123 36.3824 343.502 35.2539C342.899 34.1057 342.556 32.7473 342.474 31.1786C342.392 29.6099 342.591 28.2324 343.072 27.0461C343.572 25.8589 344.3 24.9219 345.256 24.2351C346.23 23.5286 347.399 23.1396 348.762 23.0682C350.051 23.0006 351.206 23.2491 352.229 23.8135C353.25 24.3592 354.061 25.1968 354.664 26.3263C355.284 27.4548 355.639 28.8501 355.726 30.5122L355.762 31.2125L344.977 31.7777C345.154 33.3602 345.637 34.5334 346.426 35.2973C347.234 36.0602 348.282 36.4079 349.57 36.3404C350.542 36.2895 351.323 36.0238 351.916 35.5433C352.527 35.0431 352.934 34.4132 353.137 33.6534L355.669 33.7174C355.346 35.0639 354.656 36.1955 353.6 37.1123C352.56 38.0095 351.257 38.4992 349.688 38.5814ZM344.869 29.7048L353.077 29.2746C352.889 27.8425 352.414 26.8094 351.65 26.1752C350.905 25.5401 349.982 25.2514 348.88 25.3092C347.741 25.3689 346.816 25.7731 346.106 26.522C345.414 27.2511 345.002 28.312 344.869 29.7048ZM357.957 32.0526C357.866 31.4019 357.76 30.6209 357.637 29.7098C357.533 28.7976 357.428 27.8668 357.322 26.9173C357.216 25.9678 357.144 25.1195 357.105 24.3725L356.767 17.9296L359.176 17.8033L359.514 24.2463C359.553 24.9933 359.569 25.8445 359.563 26.7998C359.576 27.7542 359.569 28.6909 359.542 29.6099C359.534 30.528 359.519 31.3153 359.497 31.9718L357.957 32.0526ZM357.333 37.8436L357.167 34.6782L360.333 34.5123L360.499 37.6778L357.333 37.8436Z" fill="white"/>
</svg>
