<svg width="596" height="596" viewBox="0 0 596 596" fill="none" xmlns="http://www.w3.org/2000/svg">
<rect x="286.988" width="22.0736" height="99.3308" fill="white" fill-opacity="0.05"/>
<rect x="286.988" y="496.67" width="22.0736" height="99.3308" fill="white" fill-opacity="0.05"/>
<rect x="596" y="286.971" width="22.0735" height="99.3313" transform="rotate(90 596 286.971)" fill="white" fill-opacity="0.05"/>
<rect x="99.332" y="286.971" width="22.0735" height="99.3313" transform="rotate(90 99.332 286.971)" fill="white" fill-opacity="0.05"/>
<rect width="22.0735" height="99.3313" transform="matrix(-0.25882 0.965926 -0.965926 -0.258818 588.711 364.463)" fill="white" fill-opacity="0.05"/>
<rect width="22.0735" height="99.3313" transform="matrix(-0.25882 0.965926 -0.965926 -0.258818 108.973 235.922)" fill="white" fill-opacity="0.05"/>
<rect width="22.0735" height="99.3312" transform="matrix(-0.500002 0.866024 -0.866026 -0.499998 561.602 437.432)" fill="white" fill-opacity="0.05"/>
<rect width="22.0735" height="99.3312" transform="matrix(-0.500002 0.866024 -0.866026 -0.499998 131.488 189.113)" fill="white" fill-opacity="0.05"/>
<rect width="22.0736" height="99.3311" transform="matrix(-0.707108 0.707105 -0.707108 -0.707105 516.512 500.904)" fill="white" fill-opacity="0.05"/>
<rect width="22.0736" height="99.3311" transform="matrix(-0.707108 0.707105 -0.707108 -0.707105 165.316 149.699)" fill="white" fill-opacity="0.05"/>
<rect width="22.0736" height="99.3309" transform="matrix(-0.866026 0.499998 -0.500002 -0.866024 456.547 550.555)" fill="white" fill-opacity="0.05"/>
<rect width="22.0736" height="99.3309" transform="matrix(-0.866026 0.499998 -0.500002 -0.866024 208.191 120.43)" fill="white" fill-opacity="0.05"/>
<rect width="22.0736" height="99.3308" transform="matrix(-0.965926 0.258818 -0.25882 -0.965926 385.77 582.979)" fill="white" fill-opacity="0.05"/>
<rect width="22.0736" height="99.3308" transform="matrix(-0.965926 0.258818 -0.25882 -0.965926 257.207 103.238)" fill="white" fill-opacity="0.05"/>
<rect width="22.0736" height="99.3308" transform="matrix(-0.965926 -0.258818 0.25882 -0.965926 231.512 588.713)" fill="white" fill-opacity="0.05"/>
<rect width="22.0736" height="99.3308" transform="matrix(-0.965926 -0.258818 0.25882 -0.965926 360.043 108.99)" fill="white" fill-opacity="0.05"/>
<rect width="22.0736" height="99.3309" transform="matrix(-0.866026 -0.499998 0.500002 -0.866024 158.555 561.588)" fill="white" fill-opacity="0.05"/>
<rect width="22.0736" height="99.3309" transform="matrix(-0.866026 -0.499998 0.500002 -0.866024 406.863 131.459)" fill="white" fill-opacity="0.05"/>
<rect width="22.0736" height="99.3311" transform="matrix(-0.707108 -0.707105 0.707108 -0.707105 95.0469 516.527)" fill="white" fill-opacity="0.05"/>
<rect width="22.0736" height="99.3311" transform="matrix(-0.707108 -0.707105 0.707108 -0.707105 446.223 165.344)" fill="white" fill-opacity="0.05"/>
<rect width="22.0735" height="99.3312" transform="matrix(-0.500002 -0.866024 0.866026 -0.499998 45.4062 456.574)" fill="white" fill-opacity="0.05"/>
<rect width="22.0735" height="99.3312" transform="matrix(-0.500002 -0.866024 0.866026 -0.499998 475.52 208.232)" fill="white" fill-opacity="0.05"/>
<rect width="22.0735" height="99.3313" transform="matrix(-0.25882 -0.965926 0.965926 -0.258818 12.9805 385.811)" fill="white" fill-opacity="0.05"/>
<rect width="22.0735" height="99.3313" transform="matrix(-0.25882 -0.965926 0.965926 -0.258818 492.727 257.254)" fill="white" fill-opacity="0.05"/>
</svg>
