<svg width="1024" height="768" viewBox="0 0 1024 768" fill="none" xmlns="http://www.w3.org/2000/svg" xmlns:xlink="http://www.w3.org/1999/xlink">
<g clip-path="url(#clip0_122_104)">
<rect width="1024" height="768" fill="black"/>
<path d="M1026.23 9.47281L1020.87 181.57C1020.77 184.757 1020.68 187.944 1020.58 191.131C1020.48 187.944 1020.38 184.757 1020.28 181.57L1014.92 9.47281C1014.82 6.28591 1014.72 3.09901 1014.62 -0.0878911L1026.53 -0.0878906C1026.43 3.09901 1026.33 6.28591 1026.23 9.47281Z" fill="#BCFF00"/>
<path d="M1018.31 181.571L1023.67 9.47389C1023.76 6.28694 1023.86 3.09969 1023.96 -0.0872802C1024.06 3.09969 1024.16 6.28694 1024.26 9.47389L1029.62 181.571C1029.72 184.758 1029.82 187.944 1029.92 191.131L1018.01 191.131C1018.11 187.944 1018.21 184.758 1018.31 181.571Z" fill="#BCFF00"/>
<path d="M1108.32 99.4838L936.224 94.1256C933.038 94.0264 929.851 93.9275 926.664 93.8283C929.851 93.7291 933.038 93.6298 936.224 93.5306L1108.32 88.1724C1111.51 88.0732 1114.7 87.9739 1117.88 87.8747L1117.88 99.7815C1114.7 99.6823 1111.51 99.583 1108.32 99.4838Z" fill="#BCFF00"/>
<path d="M936.222 91.5612L1108.32 96.9193C1111.51 97.0186 1114.69 97.1174 1117.88 97.2166C1114.69 97.3158 1111.51 97.4151 1108.32 97.5143L936.222 102.872C933.035 102.972 929.848 103.071 926.661 103.17L926.661 91.2634C929.848 91.3627 933.035 91.4619 936.222 91.5612Z" fill="#BCFF00"/>
</g>
</svg>