<svg width="332" height="332" viewBox="0 0 332 332" fill="none" xmlns="http://www.w3.org/2000/svg">
<path d="M166 0L166.032 165.837L229.525 12.636L166.092 165.862L283.38 48.6203L166.138 165.908L319.364 102.475L166.163 165.968L332 166L166.163 166.032L319.364 229.525L166.138 166.092L283.38 283.38L166.092 166.138L229.525 319.364L166.032 166.163L166 332L165.968 166.163L102.475 319.364L165.908 166.138L48.6203 283.38L165.862 166.092L12.636 229.525L165.837 166.032L0 166L165.837 165.968L12.636 102.475L165.862 165.908L48.6203 48.6203L165.908 165.862L102.475 12.636L165.968 165.837L166 0Z" fill="black"/>
<path d="M170.548 0L170.575 142.994L225.323 10.8946L229.525 12.636L233.728 14.3767L179.031 146.496L280.165 45.4039L286.596 51.835L185.502 152.967L317.623 98.2716L321.105 106.677L189.004 161.423L332 161.452V170.548L189.004 170.575L321.105 225.323L319.364 229.525L317.623 233.728L185.502 179.031L286.596 280.163L280.165 286.596L179.031 185.502L233.728 317.623L229.525 319.364L225.323 321.105L170.575 189.004L170.548 332H166L166.032 166.163L229.525 319.364L166.092 166.138L283.38 283.38L166.138 166.092L319.364 229.525L166.163 166.032L332 166L166.163 165.968L319.364 102.475L166.138 165.908L283.38 48.6203L166.092 165.862L229.525 12.636L166.032 165.837L166 0L165.968 165.837L102.475 12.636L165.908 165.862L48.6203 48.6203L165.862 165.908L12.636 102.475L165.837 165.968L0 166L165.837 166.032L12.636 229.525L165.862 166.092L48.6203 283.38L165.908 166.138L102.475 319.364L165.968 166.163L166 332H161.452L161.423 189.004L106.677 321.105L102.475 319.364L98.2716 317.623L152.967 185.502L51.8372 286.596L45.4039 280.165L146.496 179.031L14.3767 233.728L12.636 229.525L10.8946 225.323L142.994 170.575L0 170.548V161.452L142.994 161.423L10.8946 106.677L14.3767 98.2738L146.496 152.967L45.4039 51.835L51.835 45.4039L152.967 146.496L98.2716 14.3767L106.677 10.8946L161.423 142.994L161.452 0H170.548Z" fill="black"/>
</svg>
