<svg width="101" height="47" viewBox="0 0 101 47" fill="none" xmlns="http://www.w3.org/2000/svg">
<path fill-rule="evenodd" clip-rule="evenodd" d="M10.7154 24.877C15.668 24.877 19.9892 28.2949 21.1453 33.0738L21.2472 33.5411L21.2755 33.6854L21.1829 33.7999L20.6764 34.4224L20.5823 34.5401H18.3586L17.6859 33.9865L17.6608 33.8861C16.8639 30.6987 14.0185 28.4775 10.7154 28.4775C6.78854 28.4776 3.6021 31.6655 3.6021 35.5923L3.60994 35.9577C3.80044 39.7149 6.91115 42.7054 10.7154 42.7056C14.0185 42.7056 16.8639 40.486 17.6608 37.2985L17.6859 37.1981L18.3586 36.6446H20.5823L21.1829 37.3847L21.2755 37.4992L21.2472 37.6435C20.2674 42.6651 15.8278 46.3077 10.7154 46.3077C4.80664 46.3075 0.000132579 41.501 0 35.5923C0 29.6835 4.80656 24.8771 10.7154 24.877Z" fill="white"/>
<path d="M25.9549 24.9695L26.5822 25.5967V45.5879L25.9549 46.2151L25.8639 46.3077H23.6952L23.6026 46.2089L23.0977 45.6741L23.0114 45.5832V25.6015L23.0977 25.5105L23.6026 24.9757L23.6952 24.877H25.8639L25.9549 24.9695Z" fill="white"/>
<path fill-rule="evenodd" clip-rule="evenodd" d="M34.2239 24.877C38.7658 24.877 42.4724 28.5836 42.4725 33.1256C42.4725 36.1601 40.7855 38.9353 38.1396 40.3658L40.9827 43.1838L41.0768 43.2764V44.28L39.5243 45.8325H38.5207L38.4282 45.7384L34.0639 41.3444H33.0823V45.5832L32.9976 45.6741L32.4911 46.2089L32.3985 46.3077H30.1952L30.1027 46.2089L29.5978 45.6741L29.5115 45.5832V25.6015L29.5978 25.5105L30.1027 24.9757L30.1952 24.877H34.2239ZM33.0823 37.7736H34.2239C36.8148 37.7736 38.9018 35.6843 38.9018 33.1256C38.9017 30.5384 36.816 28.4775 34.2239 28.4775H33.0823V37.7736Z" fill="white"/>
<path fill-rule="evenodd" clip-rule="evenodd" d="M53.7508 24.877C58.7033 24.877 63.023 28.2951 64.1792 33.0738L64.2811 33.5411L64.3094 33.6854L64.2168 33.7999L63.7119 34.4224L63.6178 34.5401H61.3941L60.7214 33.9865L60.6963 33.8861C59.8994 30.6987 57.0539 28.4776 53.7508 28.4775C49.8239 28.4775 46.636 31.6654 46.636 35.5923L46.6454 35.9577C46.8359 39.7149 49.9465 42.7056 53.7508 42.7056C57.0539 42.7055 59.8994 40.4859 60.6963 37.2985L60.7214 37.1981L61.3941 36.6446H63.6178L63.7119 36.7606L64.3094 37.4992L64.2811 37.6435C63.3012 42.6649 58.8632 46.3076 53.7508 46.3077C47.842 46.3077 43.0356 41.5011 43.0355 35.5923C43.0355 29.6834 47.8419 24.877 53.7508 24.877Z" fill="white"/>
<path d="M69.0264 24.9757L69.5314 25.5105L69.6176 25.6015V42.7056H78.3242L78.4167 42.8043L78.9216 43.3391L79.0079 43.4301V45.5832L78.9216 45.6741L78.4167 46.2089L78.3242 46.3077H66.7306L66.6381 46.2089L66.1316 45.6741L66.0469 45.5832V25.6015L66.1316 25.5105L66.6381 24.9757L66.7306 24.877H68.9339L69.0264 24.9757Z" fill="white"/>
<path fill-rule="evenodd" clip-rule="evenodd" d="M90.2862 24.877C96.1948 24.8773 101 29.6836 101 35.5923L100.997 36.0894C100.993 36.258 100.986 36.4291 100.97 36.6006L100.958 36.7245L100.865 36.8076L100.33 37.2828L100.241 37.3628H83.3972C84.1652 40.4669 86.9999 42.7056 90.2862 42.7056C92.8767 42.7053 95.2668 41.3113 96.5181 39.036L96.5605 38.9576L96.6389 38.9137L97.1862 38.6048H99.551L99.6435 38.7506L100.208 39.6335L100.144 39.7872C98.4603 43.7353 94.6025 46.3074 90.2862 46.3077C84.3774 46.3077 79.571 41.5011 79.5709 35.5923C79.5709 29.6834 84.3773 24.877 90.2862 24.877ZM90.2862 28.4775C87.032 28.4775 84.2236 30.6859 83.4035 33.7622H97.1705C96.3772 30.688 93.5706 28.4778 90.2862 28.4775Z" fill="white"/>
<path d="M3.57231 0.719793V20.7109L2.85251 21.4307H0.685293L0.591203 21.3319L0.0862497 20.7972L0 20.7062V0.724498L0.0862497 0.633543L0.591203 0.0987951L0.685293 0H2.85251L3.57231 0.719793Z" fill="white"/>
<path d="M11.3473 0.0658634L11.8821 0.482998L11.9762 0.555135L11.9981 0.672748L15.2474 17.8584H16.1287V0.719793L16.8187 0.0297954H19.0094L19.6994 0.719793V20.7109L19.0722 21.3382L18.9812 21.4307H12.6818L12.1753 20.852L10.0724 9.8262V20.7062L9.98615 20.7972L9.4812 21.3319L9.38711 21.4307H7.18539L7.0913 21.3319L6.58634 20.7972L6.50009 20.7062V0.719793L7.21989 0H11.2611L11.3473 0.0658634Z" fill="white"/>
<path d="M27.4823 0.0658634L28.017 0.482998L28.1111 0.555135L28.1331 0.672748L31.3824 17.8584H32.2637V0.719793L32.3546 0.627271L32.9521 0.0297954H35.1444L35.8344 0.719793V20.7109L35.1146 21.4307H28.8152L28.3103 20.852L26.2058 9.81836V20.7062L26.1211 20.7972L25.6146 21.3319L25.5221 21.4307H23.3188L23.2263 21.3319L22.7213 20.7972L22.6351 20.7062V0.719793L23.3549 0H27.396L27.4823 0.0658634Z" fill="white"/>
<path fill-rule="evenodd" clip-rule="evenodd" d="M48.2967 0C54.2054 0.000269775 59.0121 4.80663 59.0121 10.7154L59.0074 11.2125C59.0035 11.3811 58.9963 11.5521 58.9807 11.7237L58.9697 11.8476L58.8756 11.9307L58.3409 12.4058L58.2515 12.4858H41.4077C42.1757 15.5899 45.0104 17.8286 48.2967 17.8286C50.8872 17.8284 53.2772 16.4344 54.5286 14.1591L54.571 14.0807L54.6494 14.0368L55.1967 13.7278H57.5615L57.654 13.8737L58.2186 14.7565L58.1543 14.9102C56.4707 18.8584 52.6131 21.4305 48.2967 21.4307C42.3879 21.4307 37.5815 16.6241 37.5814 10.7154C37.5814 4.80646 42.3878 0 48.2967 0ZM48.2967 3.60053C45.0427 3.60053 42.2358 5.8091 41.4156 8.88529H55.181C54.3876 5.81099 51.5812 3.60076 48.2967 3.60053Z" fill="white"/>
<path fill-rule="evenodd" clip-rule="evenodd" d="M65.4792 0C70.0209 0.000295926 73.7278 3.70686 73.7278 8.24861L73.7059 8.84138C73.5025 11.6418 71.8663 14.1521 69.3934 15.4889L72.2381 18.3069L72.3306 18.3994V19.4031L70.7797 20.9555H69.776L69.6835 20.8615L65.3177 16.4674H64.3376V20.7062L64.2513 20.7972L63.7464 21.3319L63.6539 21.4307H61.4506L61.3565 21.3319L60.8515 20.7972L60.7669 20.7062V0.724498L60.8515 0.633543L61.3565 0.0987951L61.4506 0H65.4792ZM64.3376 12.8967H65.4792C68.0699 12.8964 70.1555 10.8072 70.1555 8.24861C70.1555 5.82332 68.3237 3.86018 65.9591 3.62406L65.4792 3.60053H64.3376V12.8967Z" fill="white"/>
</svg>
