<svg width="703" height="178" viewBox="0 0 703 178" fill="none" xmlns="http://www.w3.org/2000/svg">
<g clip-path="url(#clip0_2609_4)">
<path d="M245.629 177.857C231.777 177.857 218.42 172.789 210.55 159.422H205.98V174.053H174.488V0H205.98V63.3202H210.55C218.634 49.4579 233.749 44.1152 247.386 44.1152C281.41 44.1152 304.4 71.3451 304.4 109.689C304.4 148.033 279.164 177.791 245.629 177.791V177.863V177.857ZM238.813 149.649C258.217 149.649 272.062 133.747 272.062 111.025C272.062 88.3019 257.931 72.4005 238.813 72.4005C219.694 72.4005 206.052 87.5269 206.052 111.025C206.052 134.522 219.903 149.649 238.813 149.649ZM362.607 177.857C338.425 177.857 318.741 163.225 318.741 139.233C318.741 115.24 340.391 101.873 366.616 99.1301L403.666 95.332V88.2964C403.666 77.4628 394.807 69.861 379.204 69.861C363.601 69.861 355.725 76.4019 352.984 86.2517H322.755C325.776 62.2593 345.674 44.1097 379.204 44.1097C412.734 44.1097 432.912 59.7309 432.912 90.2642V151.825C432.912 159.636 433.687 170.47 434.175 173.493V173.988H403.946C403.666 169.695 403.666 165.688 403.666 161.395H399.097C391.292 173.988 377.655 177.786 362.541 177.786L362.612 177.857H362.607ZM371.185 154.151C391.853 154.151 403.732 138.529 403.732 122.633V116.301L375.964 119.61C358.812 121.649 350.513 126.646 350.513 137.76C350.513 148.874 359.092 154.151 371.18 154.151H371.185ZM508.622 177.857C476.844 177.857 454.139 161.956 450.624 136.979H481.628C485.143 148.093 496.742 152.881 508.836 152.881C520.93 152.881 531.261 147.604 531.261 138.249C531.261 128.894 521.699 126.36 508.556 124.106L495.199 121.853C469.962 117.56 454.354 106.935 454.354 84.284C454.354 61.6327 476.004 44.1812 506.024 44.1812C536.044 44.1812 554.674 57.8291 559.946 81.5412H529.717C526.202 72.1861 516.855 68.4539 506.238 68.4539C495.622 68.4539 485.077 74.0109 485.077 81.8215C485.077 89.6321 491.613 92.4463 505.255 94.6944L518.612 96.948C543.074 100.96 561.704 111.091 561.704 135.572C561.704 160.054 539.488 177.995 508.485 177.995L508.627 177.852L508.622 177.857ZM640.715 177.857C601.907 177.857 576.181 151.331 576.181 110.739C576.181 70.1469 603.39 44.1097 641 44.1097C678.611 44.1097 703.007 73.3788 703.007 112.003V117.56H606.976C608.525 138.524 623.145 150.836 640.791 150.836C658.438 150.836 664.271 145.768 668.56 136.974H700.827C694.291 160.686 670.806 177.852 640.791 177.852H640.72L640.715 177.857ZM672.212 96.6677C669.68 79.7823 656.323 69.9325 640.72 69.9325C625.117 69.9325 610.491 79.502 607.47 96.6677H672.289H672.218H672.212Z" fill="white"/>
<path d="M7.5902 174.131C2.52641 174.131 0 171.597 0 166.535V55.5103C0 50.4425 2.5319 47.9141 7.5902 47.9141H118.521C123.585 47.9141 126.112 50.448 126.112 55.5103V166.529C126.112 171.597 123.58 174.126 118.521 174.126H7.5902V174.131Z" fill="white"/>
</g>
<defs>
<clipPath id="clip0_2609_4">
<rect width="703" height="178" fill="white"/>
</clipPath>
</defs>
</svg>
