<svg width="1120" height="47" viewBox="0 0 1120 47" fill="none" xmlns="http://www.w3.org/2000/svg">
<rect y="6.86719" width="8.00991" height="16.5538" fill="white"/>
<rect x="8.00781" y="23.4199" width="8.00991" height="16.5538" fill="white"/>
<circle cx="38.1802" cy="23.1529" r="13.2164" stroke="white" stroke-width="7.20892"/>
<path fill-rule="evenodd" clip-rule="evenodd" d="M1029.72 24.877C1034.67 24.877 1038.99 28.2949 1040.15 33.0738L1040.25 33.5411L1040.28 33.6854L1040.18 33.7999L1039.68 34.4224L1039.58 34.5401H1037.36L1036.69 33.9865L1036.66 33.8861C1035.86 30.6987 1033.02 28.4775 1029.72 28.4775C1025.79 28.4776 1022.6 31.6655 1022.6 35.5923L1022.61 35.9577C1022.8 39.7149 1025.91 42.7054 1029.72 42.7056C1033.02 42.7056 1035.86 40.486 1036.66 37.2985L1036.69 37.1981L1037.36 36.6446H1039.58L1040.18 37.3847L1040.28 37.4992L1040.25 37.6435C1039.27 42.6651 1034.83 46.3077 1029.72 46.3077C1023.81 46.3075 1019 41.501 1019 35.5923C1019 29.6835 1023.81 24.8771 1029.72 24.877Z" fill="white"/>
<path d="M1044.95 24.9695L1045.58 25.5967V45.5879L1044.95 46.2151L1044.86 46.3077H1042.7L1042.6 46.2089L1042.1 45.6741L1042.01 45.5832V25.6015L1042.1 25.5105L1042.6 24.9757L1042.7 24.877H1044.86L1044.95 24.9695Z" fill="white"/>
<path fill-rule="evenodd" clip-rule="evenodd" d="M1053.22 24.877C1057.77 24.877 1061.47 28.5836 1061.47 33.1256C1061.47 36.1601 1059.79 38.9353 1057.14 40.3658L1059.98 43.1838L1060.08 43.2764V44.28L1058.52 45.8325H1057.52L1057.43 45.7384L1053.06 41.3444H1052.08V45.5832L1052 45.6741L1051.49 46.2089L1051.4 46.3077H1049.2L1049.1 46.2089L1048.6 45.6741L1048.51 45.5832V25.6015L1048.6 25.5105L1049.1 24.9757L1049.2 24.877H1053.22ZM1052.08 37.7736H1053.22C1055.81 37.7736 1057.9 35.6843 1057.9 33.1256C1057.9 30.5384 1055.82 28.4775 1053.22 28.4775H1052.08V37.7736Z" fill="white"/>
<path fill-rule="evenodd" clip-rule="evenodd" d="M1072.75 24.877C1077.7 24.877 1082.02 28.2951 1083.18 33.0738L1083.28 33.5411L1083.31 33.6854L1083.22 33.7999L1082.71 34.4224L1082.62 34.5401H1080.39L1079.72 33.9865L1079.7 33.8861C1078.9 30.6987 1076.05 28.4776 1072.75 28.4775C1068.82 28.4775 1065.64 31.6654 1065.64 35.5923L1065.65 35.9577C1065.84 39.7149 1068.95 42.7056 1072.75 42.7056C1076.05 42.7055 1078.9 40.4859 1079.7 37.2985L1079.72 37.1981L1080.39 36.6446H1082.62L1082.71 36.7606L1083.31 37.4992L1083.28 37.6435C1082.3 42.6649 1077.86 46.3076 1072.75 46.3077C1066.84 46.3077 1062.04 41.5011 1062.04 35.5923C1062.04 29.6834 1066.84 24.877 1072.75 24.877Z" fill="white"/>
<path d="M1088.03 24.9757L1088.53 25.5105L1088.62 25.6015V42.7056H1097.32L1097.42 42.8043L1097.92 43.3391L1098.01 43.4301V45.5832L1097.92 45.6741L1097.42 46.2089L1097.32 46.3077H1085.73L1085.64 46.2089L1085.13 45.6741L1085.05 45.5832V25.6015L1085.13 25.5105L1085.64 24.9757L1085.73 24.877H1087.93L1088.03 24.9757Z" fill="white"/>
<path fill-rule="evenodd" clip-rule="evenodd" d="M1109.29 24.877C1115.19 24.8773 1120 29.6836 1120 35.5923L1120 36.0894C1119.99 36.258 1119.99 36.4291 1119.97 36.6006L1119.96 36.7245L1119.87 36.8076L1119.33 37.2828L1119.24 37.3628H1102.4C1103.17 40.4669 1106 42.7056 1109.29 42.7056C1111.88 42.7053 1114.27 41.3113 1115.52 39.036L1115.56 38.9576L1115.64 38.9137L1116.19 38.6048H1118.55L1118.64 38.7506L1119.21 39.6335L1119.14 39.7872C1117.46 43.7353 1113.6 46.3074 1109.29 46.3077C1103.38 46.3077 1098.57 41.5011 1098.57 35.5923C1098.57 29.6834 1103.38 24.877 1109.29 24.877ZM1109.29 28.4775C1106.03 28.4775 1103.22 30.6859 1102.4 33.7622H1116.17C1115.38 30.688 1112.57 28.4778 1109.29 28.4775Z" fill="white"/>
<path d="M1022.57 0.719793V20.7109L1021.85 21.4307H1019.69L1019.59 21.3319L1019.09 20.7972L1019 20.7062V0.724498L1019.09 0.633543L1019.59 0.0987951L1019.69 0H1021.85L1022.57 0.719793Z" fill="white"/>
<path d="M1030.35 0.0658634L1030.88 0.482998L1030.98 0.555135L1031 0.672748L1034.25 17.8584H1035.13V0.719793L1035.82 0.0297954H1038.01L1038.7 0.719793V20.7109L1038.07 21.3382L1037.98 21.4307H1031.68L1031.18 20.852L1029.07 9.8262V20.7062L1028.99 20.7972L1028.48 21.3319L1028.39 21.4307H1026.19L1026.09 21.3319L1025.59 20.7972L1025.5 20.7062V0.719793L1026.22 0H1030.26L1030.35 0.0658634Z" fill="white"/>
<path d="M1046.48 0.0658634L1047.02 0.482998L1047.11 0.555135L1047.13 0.672748L1050.38 17.8584H1051.26V0.719793L1051.35 0.627271L1051.95 0.0297954H1054.14L1054.83 0.719793V20.7109L1054.11 21.4307H1047.82L1047.31 20.852L1045.21 9.81836V20.7062L1045.12 20.7972L1044.61 21.3319L1044.52 21.4307H1042.32L1042.23 21.3319L1041.72 20.7972L1041.64 20.7062V0.719793L1042.35 0H1046.4L1046.48 0.0658634Z" fill="white"/>
<path fill-rule="evenodd" clip-rule="evenodd" d="M1067.3 0C1073.21 0.000269775 1078.01 4.80663 1078.01 10.7154L1078.01 11.2125C1078 11.3811 1078 11.5521 1077.98 11.7237L1077.97 11.8476L1077.88 11.9307L1077.34 12.4058L1077.25 12.4858H1060.41C1061.18 15.5899 1064.01 17.8286 1067.3 17.8286C1069.89 17.8284 1072.28 16.4344 1073.53 14.1591L1073.57 14.0807L1073.65 14.0368L1074.2 13.7278H1076.56L1076.65 13.8737L1077.22 14.7565L1077.15 14.9102C1075.47 18.8584 1071.61 21.4305 1067.3 21.4307C1061.39 21.4307 1056.58 16.6241 1056.58 10.7154C1056.58 4.80646 1061.39 0 1067.3 0ZM1067.3 3.60053C1064.04 3.60053 1061.24 5.8091 1060.42 8.88529H1074.18C1073.39 5.81099 1070.58 3.60076 1067.3 3.60053Z" fill="white"/>
<path fill-rule="evenodd" clip-rule="evenodd" d="M1084.48 0C1089.02 0.000295926 1092.73 3.70686 1092.73 8.24861L1092.71 8.84138C1092.5 11.6418 1090.87 14.1521 1088.39 15.4889L1091.24 18.3069L1091.33 18.3994V19.4031L1089.78 20.9555H1088.78L1088.68 20.8615L1084.32 16.4674H1083.34V20.7062L1083.25 20.7972L1082.75 21.3319L1082.65 21.4307H1080.45L1080.36 21.3319L1079.85 20.7972L1079.77 20.7062V0.724498L1079.85 0.633543L1080.36 0.0987951L1080.45 0H1084.48ZM1083.34 12.8967H1084.48C1087.07 12.8964 1089.16 10.8072 1089.16 8.24861C1089.16 5.82332 1087.32 3.86018 1084.96 3.62406L1084.48 3.60053H1083.34V12.8967Z" fill="white"/>
</svg>
