<svg width="41" height="41" viewBox="0 0 41 41" fill="none" xmlns="http://www.w3.org/2000/svg">
<path d="M21.3491 2.04999L20.2002 38.9497C20.1789 39.633 20.1577 40.3164 20.1364 40.9997C20.1152 40.3164 20.0939 39.633 20.0726 38.9497L18.9238 2.04999C18.9025 1.36666 18.8813 0.683329 18.86 6.79606e-08L21.413 1.88757e-07C21.3918 0.68333 21.3703 1.36667 21.3491 2.04999Z" fill="white"/>
<path d="M19.6501 38.95L20.799 2.0503C20.8202 1.367 20.8415 0.683617 20.8628 0.000307014C20.884 0.683615 20.9053 1.367 20.9265 2.0503L22.0754 38.95C22.0967 39.6333 22.1179 40.3167 22.1392 41L19.5862 41C19.6074 40.3167 19.6289 39.6333 19.6501 38.95Z" fill="white"/>
<path d="M38.95 21.3495L2.05058 20.2006C1.36731 20.1794 0.684048 20.1581 0.000784105 20.1369C0.684048 20.1156 1.36731 20.0943 2.05058 20.0731L38.95 18.9242C39.6333 18.9029 40.3167 18.8817 41 18.8604L41 21.4135C40.3167 21.3922 39.6333 21.3708 38.95 21.3495Z" fill="white"/>
<path d="M2.04998 19.6509L38.9494 20.7997C39.6327 20.821 40.316 20.8422 40.9992 20.8635C40.316 20.8848 39.6327 20.906 38.9494 20.9273L2.04998 22.0761C1.36666 22.0974 0.683322 22.1186 -7.97825e-08 22.1399L7.14577e-08 19.5869C0.683322 19.6081 1.36666 19.6296 2.04998 19.6509Z" fill="white"/>
<path d="M32.9457 34.1465L7.66631 7.24206C7.19817 6.74383 6.73 6.24562 6.26186 5.74739C6.76009 6.21553 7.2583 6.6837 7.75652 7.15185L34.6607 32.4316C35.1589 32.8997 35.6571 33.3679 36.1553 33.836L34.3501 35.6413C33.8819 35.1431 33.4139 34.6447 32.9457 34.1465Z" fill="white"/>
<path d="M8.05347 6.8539L33.3329 33.7583C33.8011 34.2566 34.2692 34.7548 34.7374 35.253C34.2391 34.7849 33.7409 34.3167 33.2427 33.8486L6.33856 8.56883C5.84034 8.10069 5.34213 7.63251 4.8439 7.16437L6.64916 5.35909C7.1173 5.85732 7.58533 6.35567 8.05347 6.8539Z" fill="white"/>
<path d="M6.85328 32.9462L33.7574 7.66649C34.2556 7.19835 34.7539 6.73017 35.2521 6.26203C34.7839 6.76026 34.3158 7.25848 33.8476 7.75671L8.56819 34.6612C8.10005 35.1594 7.63189 35.6576 7.16375 36.1558L5.35849 34.3505C5.85671 33.8824 6.35506 33.4144 6.85328 32.9462Z" fill="white"/>
<path d="M34.1458 8.05483L7.24169 33.3346C6.74347 33.8027 6.24526 34.2709 5.74703 34.739C6.21517 34.2408 6.68334 33.7426 7.15147 33.2443L32.4309 6.3399C32.8991 5.84167 33.3672 5.34345 33.8354 4.84522L35.6406 6.6505C35.1424 7.11865 34.6441 7.58669 34.1458 8.05483Z" fill="white"/>
<path d="M3.26855 27.1467L37.5116 13.3516C38.1457 13.0961 38.7799 12.8406 39.414 12.5852C38.797 12.8796 38.1799 13.174 37.5629 13.4684L4.24436 29.367C3.62735 29.6614 3.01032 29.9558 2.39331 30.2502L1.36609 27.913C2.00022 27.6575 2.63442 27.4022 3.26855 27.1467Z" fill="white"/>
<path d="M37.7335 13.8544L3.49043 27.6495C2.85632 27.905 2.22214 28.1605 1.58804 28.416C2.20503 28.1215 2.8221 27.8271 3.43909 27.5327L36.7577 11.6341C37.3747 11.3397 37.9917 11.0453 38.6087 10.7509L39.6359 13.0882C39.0018 13.3436 38.3676 13.599 37.7335 13.8544Z" fill="white"/>
<path d="M4.19435 11.8263L37.0416 28.6771C37.6499 28.9892 38.2582 29.3012 38.8665 29.6132C38.24 29.3396 37.6134 29.066 36.9869 28.7924L3.15504 14.0176C2.52853 13.7439 1.90202 13.4703 1.2755 13.1967L2.36956 10.89C2.97784 11.202 3.58606 11.5142 4.19435 11.8263Z" fill="white"/>
<path d="M36.8064 29.1735L3.95919 12.3227C3.35093 12.0106 2.74259 11.6986 2.13432 11.3865C2.76082 11.6601 3.38737 11.9338 4.01387 12.2074L37.8457 26.9822C38.4723 27.2558 39.0988 27.5295 39.7253 27.8031L38.6312 30.1098C38.0229 29.7978 37.4147 29.4856 36.8064 29.1735Z" fill="white"/>
<path d="M28.3121 3.76411L13.196 37.4451C12.9161 38.0688 12.6362 38.6926 12.3562 39.3163C12.5968 38.6764 12.8374 38.0364 13.078 37.3965L26.0697 2.8404C26.3103 2.20047 26.5509 1.56054 26.7915 0.920615L29.1521 1.893C28.8721 2.51672 28.592 3.14039 28.3121 3.76411Z" fill="white"/>
<path d="M12.6874 37.2357L27.8036 3.55478C28.0835 2.93107 28.3634 2.3073 28.6433 1.68359C28.4028 2.32351 28.1621 2.96346 27.9215 3.60337L14.9299 38.1595C14.6893 38.7994 14.4487 39.4393 14.2081 40.0792L11.8475 39.1069C12.1274 38.4831 12.4075 37.8595 12.6874 37.2357Z" fill="white"/>
<path d="M27.0675 37.7623L13.4282 3.45665C13.1757 2.82137 12.9231 2.18606 12.6705 1.55079C12.9621 2.16912 13.2537 2.78751 13.5453 3.40585L29.2922 36.7966C29.5838 37.4149 29.8754 38.0333 30.167 38.6516L27.8251 39.6682C27.5725 39.0329 27.3201 38.3976 27.0675 37.7623Z" fill="white"/>
<path d="M13.9313 3.23795L27.5706 37.5436C27.8231 38.1789 28.0757 38.8142 28.3283 39.4494C28.0367 38.8311 27.7451 38.2127 27.4535 37.5944L11.7066 4.20368C11.415 3.58533 11.1234 2.96697 10.8318 2.34862L13.1737 1.33201C13.4263 1.9673 13.6787 2.60266 13.9313 3.23795Z" fill="white"/>
</svg>
