<svg width="1128" height="47" viewBox="0 0 1128 47" fill="none" xmlns="http://www.w3.org/2000/svg">
<path fill-rule="evenodd" clip-rule="evenodd" d="M10.7154 24.877C15.668 24.877 19.9892 28.2949 21.1453 33.0738L21.2472 33.5411L21.2755 33.6854L21.1829 33.7999L20.6764 34.4224L20.5823 34.5401H18.3586L17.6859 33.9865L17.6608 33.8861C16.8639 30.6987 14.0185 28.4775 10.7154 28.4775C6.78854 28.4776 3.6021 31.6655 3.6021 35.5923L3.60994 35.9577C3.80044 39.7149 6.91115 42.7054 10.7154 42.7056C14.0185 42.7056 16.8639 40.486 17.6608 37.2985L17.6859 37.1981L18.3586 36.6446H20.5823L21.1829 37.3847L21.2755 37.4992L21.2472 37.6435C20.2674 42.6651 15.8278 46.3077 10.7154 46.3077C4.80664 46.3075 0.000132579 41.501 0 35.5923C0 29.6835 4.80656 24.8771 10.7154 24.877Z" fill="white"/>
<path d="M25.9549 24.9695L26.5822 25.5967V45.5879L25.9549 46.2151L25.8639 46.3077H23.6952L23.6026 46.2089L23.0977 45.6741L23.0114 45.5832V25.6015L23.0977 25.5105L23.6026 24.9757L23.6952 24.877H25.8639L25.9549 24.9695Z" fill="white"/>
<path fill-rule="evenodd" clip-rule="evenodd" d="M34.2239 24.877C38.7658 24.877 42.4724 28.5836 42.4725 33.1256C42.4725 36.1601 40.7855 38.9353 38.1396 40.3658L40.9827 43.1838L41.0768 43.2764V44.28L39.5243 45.8325H38.5207L38.4282 45.7384L34.0639 41.3444H33.0823V45.5832L32.9976 45.6741L32.4911 46.2089L32.3985 46.3077H30.1952L30.1027 46.2089L29.5978 45.6741L29.5115 45.5832V25.6015L29.5978 25.5105L30.1027 24.9757L30.1952 24.877H34.2239ZM33.0823 37.7736H34.2239C36.8148 37.7736 38.9018 35.6843 38.9018 33.1256C38.9017 30.5384 36.816 28.4775 34.2239 28.4775H33.0823V37.7736Z" fill="white"/>
<path fill-rule="evenodd" clip-rule="evenodd" d="M53.7508 24.877C58.7033 24.877 63.023 28.2951 64.1792 33.0738L64.2811 33.5411L64.3094 33.6854L64.2168 33.7999L63.7119 34.4224L63.6178 34.5401H61.3941L60.7214 33.9865L60.6963 33.8861C59.8994 30.6987 57.0539 28.4776 53.7508 28.4775C49.8239 28.4775 46.636 31.6654 46.636 35.5923L46.6454 35.9577C46.8359 39.7149 49.9465 42.7056 53.7508 42.7056C57.0539 42.7055 59.8994 40.4859 60.6963 37.2985L60.7214 37.1981L61.3941 36.6446H63.6178L63.7119 36.7606L64.3094 37.4992L64.2811 37.6435C63.3012 42.6649 58.8632 46.3076 53.7508 46.3077C47.842 46.3077 43.0356 41.5011 43.0355 35.5923C43.0355 29.6834 47.8419 24.877 53.7508 24.877Z" fill="white"/>
<path d="M69.0264 24.9757L69.5314 25.5105L69.6176 25.6015V42.7056H78.3242L78.4167 42.8043L78.9216 43.3391L79.0079 43.4301V45.5832L78.9216 45.6741L78.4167 46.2089L78.3242 46.3077H66.7306L66.6381 46.2089L66.1316 45.6741L66.0469 45.5832V25.6015L66.1316 25.5105L66.6381 24.9757L66.7306 24.877H68.9339L69.0264 24.9757Z" fill="white"/>
<path fill-rule="evenodd" clip-rule="evenodd" d="M90.2862 24.877C96.1948 24.8773 101 29.6836 101 35.5923L100.997 36.0894C100.993 36.258 100.986 36.4291 100.97 36.6006L100.958 36.7245L100.865 36.8076L100.33 37.2828L100.241 37.3628H83.3972C84.1652 40.4669 86.9999 42.7056 90.2862 42.7056C92.8767 42.7053 95.2668 41.3113 96.5181 39.036L96.5605 38.9576L96.6389 38.9137L97.1862 38.6048H99.551L99.6435 38.7506L100.208 39.6335L100.144 39.7872C98.4603 43.7353 94.6025 46.3074 90.2862 46.3077C84.3774 46.3077 79.571 41.5011 79.5709 35.5923C79.5709 29.6834 84.3773 24.877 90.2862 24.877ZM90.2862 28.4775C87.032 28.4775 84.2236 30.6859 83.4035 33.7622H97.1705C96.3772 30.688 93.5706 28.4778 90.2862 28.4775Z" fill="white"/>
<path d="M3.57231 0.719793V20.7109L2.85251 21.4307H0.685293L0.591203 21.3319L0.0862497 20.7972L0 20.7062V0.724498L0.0862497 0.633543L0.591203 0.0987951L0.685293 0H2.85251L3.57231 0.719793Z" fill="white"/>
<path d="M11.3473 0.0658634L11.8821 0.482998L11.9762 0.555135L11.9981 0.672748L15.2474 17.8584H16.1287V0.719793L16.8187 0.0297954H19.0094L19.6994 0.719793V20.7109L19.0722 21.3382L18.9812 21.4307H12.6818L12.1753 20.852L10.0724 9.8262V20.7062L9.98615 20.7972L9.4812 21.3319L9.38711 21.4307H7.18539L7.0913 21.3319L6.58634 20.7972L6.50009 20.7062V0.719793L7.21989 0H11.2611L11.3473 0.0658634Z" fill="white"/>
<path d="M27.4823 0.0658634L28.017 0.482998L28.1111 0.555135L28.1331 0.672748L31.3824 17.8584H32.2637V0.719793L32.3546 0.627271L32.9521 0.0297954H35.1444L35.8344 0.719793V20.7109L35.1146 21.4307H28.8152L28.3103 20.852L26.2058 9.81836V20.7062L26.1211 20.7972L25.6146 21.3319L25.5221 21.4307H23.3188L23.2263 21.3319L22.7213 20.7972L22.6351 20.7062V0.719793L23.3549 0H27.396L27.4823 0.0658634Z" fill="white"/>
<path fill-rule="evenodd" clip-rule="evenodd" d="M48.2967 0C54.2054 0.000269775 59.0121 4.80663 59.0121 10.7154L59.0074 11.2125C59.0035 11.3811 58.9963 11.5521 58.9807 11.7237L58.9697 11.8476L58.8756 11.9307L58.3409 12.4058L58.2515 12.4858H41.4077C42.1757 15.5899 45.0104 17.8286 48.2967 17.8286C50.8872 17.8284 53.2772 16.4344 54.5286 14.1591L54.571 14.0807L54.6494 14.0368L55.1967 13.7278H57.5615L57.654 13.8737L58.2186 14.7565L58.1543 14.9102C56.4707 18.8584 52.6131 21.4305 48.2967 21.4307C42.3879 21.4307 37.5815 16.6241 37.5814 10.7154C37.5814 4.80646 42.3878 0 48.2967 0ZM48.2967 3.60053C45.0427 3.60053 42.2358 5.8091 41.4156 8.88529H55.181C54.3876 5.81099 51.5812 3.60076 48.2967 3.60053Z" fill="white"/>
<path fill-rule="evenodd" clip-rule="evenodd" d="M65.4792 0C70.0209 0.000295926 73.7278 3.70686 73.7278 8.24861L73.7059 8.84138C73.5025 11.6418 71.8663 14.1521 69.3934 15.4889L72.2381 18.3069L72.3306 18.3994V19.4031L70.7797 20.9555H69.776L69.6835 20.8615L65.3177 16.4674H64.3376V20.7062L64.2513 20.7972L63.7464 21.3319L63.6539 21.4307H61.4506L61.3565 21.3319L60.8515 20.7972L60.7669 20.7062V0.724498L60.8515 0.633543L61.3565 0.0987951L61.4506 0H65.4792ZM64.3376 12.8967H65.4792C68.0699 12.8964 70.1555 10.8072 70.1555 8.24861C70.1555 5.82332 68.3237 3.86018 65.9591 3.62406L65.4792 3.60053H64.3376V12.8967Z" fill="white"/>
<path d="M693.034 9.1743H698.278L708.006 36.1543H703.598L701.166 29.1243H690.146L687.676 36.1543H683.306L693.034 9.1743ZM699.874 25.4003L695.656 13.0883L691.438 25.4003H699.874ZM709.396 9.1743H713.424V25.9323L722.506 15.9383H727.598L719.694 24.4503L727.902 36.1543H723.266L716.996 26.9583L713.424 30.7583V36.1543H709.396V9.1743ZM729.651 9.1743H733.679V18.8643C734.185 17.7243 734.958 16.8756 735.997 16.3183C737.035 15.761 738.239 15.4823 739.607 15.4823C741.76 15.4823 743.432 16.1916 744.623 17.6103C745.813 19.0036 746.409 20.853 746.409 23.1583V36.1543H742.381V24.2223C742.381 22.4236 742.064 21.081 741.431 20.1943C740.797 19.3076 739.835 18.8643 738.543 18.8643C737.048 18.8643 735.857 19.333 734.971 20.2703C734.109 21.2076 733.679 22.5503 733.679 24.2983V36.1543H729.651V9.1743ZM750.202 15.9383H754.23V36.1543H750.202V15.9383ZM750.126 8.9843H754.344V13.0123H750.126V8.9843ZM762.471 36.1543C761.077 36.1543 759.988 35.7996 759.203 35.0903C758.417 34.381 758.025 33.3043 758.025 31.8603L758.063 9.1743H762.091V31.4803C762.091 32.3923 762.547 32.8483 763.459 32.8483H765.093V36.1543H762.471Z" fill="white"/>
<path d="M802.349 4.70429L801.2 41.604C801.179 42.2873 801.158 42.9707 801.136 43.654C801.115 42.9707 801.094 42.2873 801.073 41.604L799.924 4.70429C799.903 4.02096 799.881 3.33763 799.86 2.6543L802.413 2.6543C802.392 3.33763 802.37 4.02096 802.349 4.70429Z" fill="white"/>
<path d="M800.65 41.6043L801.799 4.7046C801.82 4.02129 801.841 3.33791 801.863 2.6546C801.884 3.33791 801.905 4.0213 801.927 4.7046L803.075 41.6043C803.097 42.2876 803.118 42.971 803.139 43.6543L800.586 43.6543C800.607 42.971 800.629 42.2876 800.65 41.6043Z" fill="white"/>
<path d="M819.95 24.0038L783.051 22.8549C782.367 22.8337 781.684 22.8124 781.001 22.7912C781.684 22.7699 782.367 22.7486 783.051 22.7274L819.95 21.5785C820.633 21.5572 821.317 21.536 822 21.5147L822 24.0678C821.317 24.0465 820.633 24.0251 819.95 24.0038Z" fill="white"/>
<path d="M783.05 22.3051L819.949 23.454C820.633 23.4753 821.316 23.4965 821.999 23.5178C821.316 23.5391 820.633 23.5603 819.949 23.5816L783.05 24.7304C782.367 24.7517 781.683 24.7729 781 24.7942L781 22.2412C781.683 22.2624 782.367 22.2839 783.05 22.3051Z" fill="white"/>
<path d="M813.946 36.8008L788.666 9.89636C788.198 9.39813 787.73 8.89991 787.262 8.40168C787.76 8.86983 788.258 9.338 788.757 9.80614L815.661 35.0859C816.159 35.554 816.657 36.0222 817.155 36.4903L815.35 38.2956C814.882 37.7974 814.414 37.299 813.946 36.8008Z" fill="white"/>
<path d="M789.053 9.5082L814.333 36.4126C814.801 36.9109 815.269 37.4091 815.737 37.9073C815.239 37.4392 814.741 36.971 814.243 36.5029L787.339 11.2231C786.84 10.755 786.342 10.2868 785.844 9.81867L787.649 8.01339C788.117 8.51162 788.585 9.00997 789.053 9.5082Z" fill="white"/>
<path d="M787.853 35.6005L814.757 10.3208C815.256 9.85265 815.754 9.38447 816.252 8.91633C815.784 9.41456 815.316 9.91278 814.848 10.411L789.568 37.3154C789.1 37.8137 788.632 38.3119 788.164 38.8101L786.358 37.0048C786.857 36.5367 787.355 36.0687 787.853 35.6005Z" fill="white"/>
<path d="M815.146 10.7091L788.242 35.9889C787.743 36.457 787.245 36.9252 786.747 37.3933C787.215 36.8951 787.683 36.3969 788.151 35.8986L813.431 8.9942C813.899 8.49597 814.367 7.99775 814.835 7.49952L816.641 9.3048C816.142 9.77294 815.644 10.241 815.146 10.7091Z" fill="white"/>
<path d="M784.269 29.801L818.512 16.0059C819.146 15.7504 819.78 15.4949 820.414 15.2395C819.797 15.5339 819.18 15.8283 818.563 16.1227L785.244 32.0213C784.627 32.3157 784.01 32.6101 783.393 32.9045L782.366 30.5672C783 30.3118 783.634 30.0565 784.269 29.801Z" fill="white"/>
<path d="M818.733 16.5087L784.49 30.3038C783.856 30.5593 783.222 30.8148 782.588 31.0702C783.205 30.7758 783.822 30.4814 784.439 30.187L817.758 14.2884C818.375 13.994 818.992 13.6996 819.609 13.4052L820.636 15.7425C820.002 15.9979 819.368 16.2533 818.733 16.5087Z" fill="white"/>
<path d="M785.194 14.4806L818.042 31.3314C818.65 31.6435 819.258 31.9555 819.866 32.2675C819.24 31.9939 818.613 31.7203 817.987 31.4467L784.155 16.6719C783.529 16.3982 782.902 16.1246 782.275 15.851L783.37 13.5443C783.978 13.8563 784.586 14.1685 785.194 14.4806Z" fill="white"/>
<path d="M817.806 31.8278L784.959 14.977C784.351 14.6649 783.743 14.3529 783.134 14.0408C783.761 14.3144 784.387 14.5881 785.014 14.8617L818.846 29.6365C819.472 29.9101 820.099 30.1838 820.725 30.4574L819.631 32.7641C819.023 32.4521 818.415 32.1399 817.806 31.8278Z" fill="white"/>
<path d="M809.312 6.41841L794.196 40.0994C793.916 40.7231 793.636 41.3469 793.356 41.9706C793.597 41.3307 793.837 40.6907 794.078 40.0508L807.07 5.49469C807.31 4.85476 807.551 4.21484 807.791 3.57491L810.152 4.5473C809.872 5.17102 809.592 5.79469 809.312 6.41841Z" fill="white"/>
<path d="M793.687 39.89L808.804 6.20908C809.083 5.58536 809.363 4.9616 809.643 4.33789C809.403 4.9778 809.162 5.61775 808.922 6.25767L795.93 40.8138C795.689 41.4537 795.449 42.0936 795.208 42.7335L792.848 41.7612C793.127 41.1374 793.408 40.5138 793.687 39.89Z" fill="white"/>
<path d="M808.068 40.4166L794.428 6.11095C794.176 5.47567 793.923 4.84036 793.67 4.20508C793.962 4.82342 794.254 5.44181 794.545 6.06015L810.292 39.4508C810.584 40.0692 810.875 40.6876 811.167 41.3059L808.825 42.3225C808.573 41.6872 808.32 41.0519 808.068 40.4166Z" fill="white"/>
<path d="M794.931 5.89224L808.571 40.1979C808.823 40.8332 809.076 41.4685 809.328 42.1037C809.037 41.4854 808.745 40.867 808.454 40.2487L792.707 6.85798C792.415 6.23963 792.123 5.62126 791.832 5.00292L794.174 3.9863C794.426 4.62159 794.679 5.25695 794.931 5.89224Z" fill="white"/>
<path d="M839.782 9.1743H856.73V12.3663H843.05V21.4103H856.046V24.5263H843.05V36.1543H839.782V9.1743ZM867.82 36.6103C865.971 36.6103 864.35 36.1796 862.956 35.3183C861.563 34.457 860.486 33.241 859.726 31.6703C858.966 30.0743 858.586 28.2123 858.586 26.0843C858.586 23.9563 858.966 22.107 859.726 20.5363C860.486 18.9403 861.563 17.7116 862.956 16.8503C864.35 15.989 865.971 15.5583 867.82 15.5583C869.644 15.5583 871.253 15.989 872.646 16.8503C874.04 17.7116 875.116 18.9403 875.876 20.5363C876.636 22.107 877.016 23.9563 877.016 26.0843C877.016 28.2123 876.636 30.0743 875.876 31.6703C875.116 33.241 874.04 34.457 872.646 35.3183C871.253 36.1796 869.644 36.6103 867.82 36.6103ZM867.82 33.5703C869.67 33.5703 871.101 32.9116 872.114 31.5943C873.153 30.2516 873.672 28.415 873.672 26.0843C873.672 23.7536 873.153 21.9296 872.114 20.6123C871.101 19.2696 869.67 18.5983 867.82 18.5983C865.971 18.5983 864.527 19.257 863.488 20.5743C862.45 21.8916 861.93 23.7283 861.93 26.0843C861.93 28.4403 862.45 30.277 863.488 31.5943C864.527 32.9116 865.971 33.5703 867.82 33.5703ZM886.187 36.6103C884.16 36.6103 882.552 35.939 881.361 34.5963C880.17 33.2283 879.575 31.3536 879.575 28.9723V16.0143H882.767V28.0983C882.767 30.049 883.109 31.493 883.793 32.4303C884.502 33.3423 885.579 33.7983 887.023 33.7983C888.619 33.7983 889.873 33.2916 890.785 32.2783C891.697 31.2396 892.153 29.821 892.153 28.0223V16.0143H895.345V36.1543H892.305V32.8863C891.748 34.077 890.95 35.0016 889.911 35.6603C888.872 36.2936 887.631 36.6103 886.187 36.6103ZM899.533 16.0143H902.459L902.535 19.6243C903.041 18.2816 903.839 17.2683 904.929 16.5843C906.018 15.9003 907.285 15.5583 908.729 15.5583C910.933 15.5583 912.617 16.2676 913.783 17.6863C914.948 19.105 915.531 20.9416 915.531 23.1963V36.1543H912.339V24.1083C912.339 22.2083 911.997 20.777 911.313 19.8143C910.629 18.8516 909.539 18.3703 908.045 18.3703C906.449 18.3703 905.157 18.877 904.169 19.8903C903.206 20.8783 902.725 22.2843 902.725 24.1083V36.1543H899.533V16.0143ZM926.414 36.6103C924.691 36.6103 923.184 36.1796 921.892 35.3183C920.6 34.457 919.612 33.241 918.928 31.6703C918.244 30.0743 917.902 28.2123 917.902 26.0843C917.902 23.9563 918.244 22.107 918.928 20.5363C919.612 18.9403 920.6 17.7116 921.892 16.8503C923.184 15.989 924.691 15.5583 926.414 15.5583C927.782 15.5583 929.011 15.8496 930.1 16.4323C931.215 17.015 932.051 17.813 932.608 18.8263V9.1743H935.8V36.1543H932.912L932.798 33.1143C932.241 34.2036 931.392 35.065 930.252 35.6983C929.112 36.3063 927.833 36.6103 926.414 36.6103ZM927.06 33.5703C928.833 33.5703 930.201 32.9116 931.164 31.5943C932.127 30.2516 932.608 28.415 932.608 26.0843C932.608 23.7283 932.127 21.8916 931.164 20.5743C930.201 19.257 928.833 18.5983 927.06 18.5983C925.287 18.5983 923.868 19.2696 922.804 20.6123C921.765 21.9296 921.246 23.7536 921.246 26.0843C921.246 28.3896 921.765 30.2136 922.804 31.5563C923.868 32.899 925.287 33.5703 927.06 33.5703ZM939.002 16.0143H942.194V36.1543H939.002V16.0143ZM938.926 9.1363H942.27V12.8603H938.926V9.1363ZM945.823 16.0143H948.749L948.825 19.6243C949.331 18.2816 950.129 17.2683 951.219 16.5843C952.308 15.9003 953.575 15.5583 955.019 15.5583C957.223 15.5583 958.907 16.2676 960.073 17.6863C961.238 19.105 961.821 20.9416 961.821 23.1963V36.1543H958.629V24.1083C958.629 22.2083 958.287 20.777 957.603 19.8143C956.919 18.8516 955.829 18.3703 954.335 18.3703C952.739 18.3703 951.447 18.877 950.459 19.8903C949.496 20.8783 949.015 22.2843 949.015 24.1083V36.1543H945.823V16.0143ZM973.198 42.3103C971.045 42.3103 969.208 41.7783 967.688 40.7143C966.168 39.6503 965.193 38.2316 964.762 36.4583L968.106 36.2303C968.436 37.2436 968.993 38.0036 969.778 38.5103C970.564 39.017 971.704 39.2703 973.198 39.2703C975.048 39.2703 976.454 38.903 977.416 38.1683C978.379 37.4336 978.86 36.3316 978.86 34.8623V31.5943C978.354 32.6583 977.568 33.507 976.504 34.1403C975.466 34.7736 974.288 35.0903 972.97 35.0903C971.273 35.0903 969.753 34.685 968.41 33.8743C967.093 33.0383 966.054 31.8856 965.294 30.4163C964.56 28.9216 964.192 27.2243 964.192 25.3243C964.192 23.4243 964.56 21.7396 965.294 20.2703C966.029 18.7756 967.042 17.623 968.334 16.8123C969.652 15.9763 971.146 15.5583 972.818 15.5583C974.237 15.5583 975.504 15.8876 976.618 16.5463C977.758 17.205 978.556 18.0916 979.012 19.2063V16.0143H982.052V34.7863C982.052 37.1423 981.267 38.979 979.696 40.2963C978.126 41.639 975.96 42.3103 973.198 42.3103ZM973.122 32.0503C974.896 32.0503 976.289 31.4296 977.302 30.1883C978.341 28.947 978.86 27.2623 978.86 25.1343C978.86 23.133 978.341 21.5496 977.302 20.3843C976.264 19.1936 974.87 18.5983 973.122 18.5983C971.374 18.5983 970.006 19.2063 969.018 20.4223C968.03 21.613 967.536 23.247 967.536 25.3243C967.536 27.4016 968.03 29.0483 969.018 30.2643C970.032 31.455 971.4 32.0503 973.122 32.0503ZM994.276 9.1743H998.836L1007.46 32.5823L1016.05 9.1743H1020.61V36.1543H1017.34V15.2543L1009.63 36.1543H1005.26L997.544 15.2543V36.1543H994.276V9.1743ZM1033.22 36.6103C1031.35 36.6103 1029.72 36.1796 1028.32 35.3183C1026.93 34.457 1025.85 33.241 1025.09 31.6703C1024.36 30.0743 1023.99 28.2123 1023.99 26.0843C1023.99 23.9816 1024.36 22.1323 1025.09 20.5363C1025.85 18.9403 1026.92 17.7116 1028.28 16.8503C1029.65 15.989 1031.25 15.5583 1033.07 15.5583C1034.82 15.5583 1036.37 15.9763 1037.71 16.8123C1039.05 17.623 1040.09 18.8263 1040.82 20.4223C1041.58 22.0183 1041.96 23.9183 1041.96 26.1223V27.0723H1027.33C1027.44 29.2003 1027.99 30.8216 1029.01 31.9363C1030.04 33.0256 1031.45 33.5703 1033.22 33.5703C1034.52 33.5703 1035.58 33.279 1036.42 32.6963C1037.28 32.0883 1037.89 31.2523 1038.24 30.1883L1041.66 30.4543C1041.13 32.3036 1040.1 33.7983 1038.58 34.9383C1037.09 36.053 1035.3 36.6103 1033.22 36.6103ZM1038.47 24.2603C1038.32 22.3856 1037.76 20.9796 1036.8 20.0423C1035.86 19.0796 1034.62 18.5983 1033.07 18.5983C1031.5 18.5983 1030.21 19.0796 1029.2 20.0423C1028.21 21.005 1027.59 22.411 1027.33 24.2603H1038.47ZM1044.72 16.0143H1047.65L1047.72 19.5483C1048.23 18.307 1048.98 17.3316 1049.96 16.6223C1050.95 15.913 1052.09 15.5583 1053.38 15.5583C1054.9 15.5583 1056.18 15.9256 1057.22 16.6603C1058.26 17.395 1058.99 18.4336 1059.43 19.7763C1059.86 18.4083 1060.58 17.3696 1061.59 16.6603C1062.6 15.9256 1063.85 15.5583 1065.32 15.5583C1067.44 15.5583 1069.08 16.2296 1070.22 17.5723C1071.38 18.8896 1071.97 20.7643 1071.97 23.1963V36.1543H1068.77V23.8803C1068.77 22.0563 1068.42 20.6883 1067.71 19.7763C1067 18.839 1065.95 18.3703 1064.56 18.3703C1063.14 18.3703 1062.01 18.877 1061.17 19.8903C1060.34 20.9036 1059.92 22.3096 1059.92 24.1083V36.1543H1056.73V24.1083C1056.73 20.283 1055.35 18.3703 1052.59 18.3703C1051.17 18.3703 1050.03 18.8896 1049.17 19.9283C1048.33 20.9416 1047.91 22.335 1047.91 24.1083V36.1543H1044.72V16.0143ZM1085.38 36.6103C1083.98 36.6103 1082.74 36.3063 1081.65 35.6983C1080.56 35.0903 1079.73 34.229 1079.15 33.1143L1079.03 36.1543H1076.14V9.1743H1079.34V18.8263C1079.87 17.9143 1080.68 17.1416 1081.77 16.5083C1082.86 15.875 1084.06 15.5583 1085.38 15.5583C1087.13 15.5583 1088.65 15.989 1089.94 16.8503C1091.25 17.7116 1092.27 18.9403 1092.98 20.5363C1093.69 22.107 1094.04 23.9563 1094.04 26.0843C1094.04 28.2123 1093.69 30.0743 1092.98 31.6703C1092.27 33.241 1091.25 34.457 1089.94 35.3183C1088.65 36.1796 1087.13 36.6103 1085.38 36.6103ZM1085.19 33.5703C1086.88 33.5703 1088.23 32.899 1089.22 31.5563C1090.2 30.2136 1090.7 28.3896 1090.7 26.0843C1090.7 23.7536 1090.2 21.9296 1089.22 20.6123C1088.25 19.2696 1086.94 18.5983 1085.26 18.5983C1083.41 18.5983 1081.96 19.2696 1080.89 20.6123C1079.85 21.9296 1079.34 23.7536 1079.34 26.0843C1079.34 28.3896 1079.85 30.2136 1080.89 31.5563C1081.93 32.899 1083.36 33.5703 1085.19 33.5703ZM1104.75 36.6103C1102.87 36.6103 1101.24 36.1796 1099.85 35.3183C1098.45 34.457 1097.38 33.241 1096.62 31.6703C1095.88 30.0743 1095.51 28.2123 1095.51 26.0843C1095.51 23.9816 1095.88 22.1323 1096.62 20.5363C1097.38 18.9403 1098.44 17.7116 1099.81 16.8503C1101.18 15.989 1102.77 15.5583 1104.6 15.5583C1106.34 15.5583 1107.89 15.9763 1109.23 16.8123C1110.58 17.623 1111.61 18.8263 1112.35 20.4223C1113.11 22.0183 1113.49 23.9183 1113.49 26.1223V27.0723H1098.86C1098.96 29.2003 1099.52 30.8216 1100.53 31.9363C1101.57 33.0256 1102.98 33.5703 1104.75 33.5703C1106.04 33.5703 1107.1 33.279 1107.94 32.6963C1108.8 32.0883 1109.41 31.2523 1109.76 30.1883L1113.18 30.4543C1112.65 32.3036 1111.63 33.7983 1110.11 34.9383C1108.61 36.053 1106.83 36.6103 1104.75 36.6103ZM1109.99 24.2603C1109.84 22.3856 1109.28 20.9796 1108.32 20.0423C1107.38 19.0796 1106.14 18.5983 1104.6 18.5983C1103.03 18.5983 1101.73 19.0796 1100.72 20.0423C1099.73 21.005 1099.11 22.411 1098.86 24.2603H1109.99ZM1116.24 16.0143H1119.06L1119.17 19.7383C1119.88 17.2556 1121.48 16.0143 1123.96 16.0143H1125.93V19.0543H1124C1120.96 19.0543 1119.44 20.701 1119.44 23.9943V36.1543H1116.24V16.0143Z" fill="white"/>
</svg>
