<svg width="74" height="22" viewBox="0 0 74 22" fill="none" xmlns="http://www.w3.org/2000/svg">
<path d="M3.58556 0.722463V20.7877L2.86309 21.5102H0.687835L0.593395 21.411L0.0865696 20.8743L0 20.783V0.727185L0.0865696 0.635893L0.593395 0.0991616L0.687835 0H2.86309L3.58556 0.722463Z" fill="white"/>
<path d="M11.3894 0.0661077L11.9261 0.48479L12.0206 0.557194L12.0426 0.675243L15.3039 17.9246H16.1885V0.722463L16.8811 0.0299059H19.0799L19.7725 0.722463V20.7877L19.1429 21.4173L19.0516 21.5102H12.7289L12.2205 20.9294L10.1098 9.86264V20.783L10.0232 20.8743L9.51636 21.411L9.42192 21.5102H7.21204L7.1176 21.411L6.61077 20.8743L6.5242 20.783V0.722463L7.24666 0H11.3028L11.3894 0.0661077Z" fill="white"/>
<path d="M27.5842 0.0661077L28.121 0.48479L28.2154 0.557194L28.2374 0.675243L31.4987 17.9246H32.3833V0.722463L32.4746 0.629597L33.0743 0.0299059H35.2748L35.9673 0.722463V20.7877L35.2448 21.5102H28.9221L28.4153 20.9294L26.303 9.85477V20.783L26.218 20.8743L25.7096 21.411L25.6167 21.5102H23.4053L23.3124 21.411L22.8056 20.8743L22.719 20.783V0.722463L23.4415 0H27.4977L27.5842 0.0661077Z" fill="white"/>
<path fill-rule="evenodd" clip-rule="evenodd" d="M48.4758 0C54.4064 0.000270776 59.2309 4.82445 59.2309 10.7551L59.2262 11.254C59.2223 11.4233 59.2151 11.595 59.1994 11.7672L59.1884 11.8915L59.094 11.9749L58.5573 12.4519L58.4675 12.5321H41.5613C42.3321 15.6477 45.1774 17.8947 48.4758 17.8947C51.076 17.8945 53.4748 16.4953 54.7309 14.2116L54.7734 14.1329L54.8521 14.0888L55.4014 13.7787H57.775L57.8678 13.9251L58.4345 14.8113L58.37 14.9655C56.6802 18.9283 52.8082 21.51 48.4758 21.5102C42.5451 21.5102 37.7209 16.6858 37.7207 10.7551C37.7207 4.82429 42.545 0 48.4758 0ZM48.4758 3.61389C45.2097 3.61389 42.3924 5.83065 41.5692 8.91824H55.3857C54.5893 5.83255 51.7725 3.61411 48.4758 3.61389Z" fill="white"/>
<path fill-rule="evenodd" clip-rule="evenodd" d="M65.7221 0C70.2806 0.000297023 74.0012 3.72061 74.0013 8.2792L73.9792 8.87417C73.7752 11.685 72.1328 14.2046 69.6508 15.5463L72.506 18.3748L72.5988 18.4677V19.475L71.0422 21.0333H70.0348L69.942 20.9388L65.56 16.5285H64.5762V20.783L64.4896 20.8743L63.9828 21.411L63.8899 21.5102H61.6785L61.5841 21.411L61.0772 20.8743L60.9922 20.783V0.727185L61.0772 0.635893L61.5841 0.0991616L61.6785 0H65.7221ZM64.5762 12.9445H65.7221C68.3224 12.9442 70.4157 10.8473 70.4157 8.2792C70.4157 5.84491 68.5771 3.8745 66.2037 3.6375L65.7221 3.61389H64.5762V12.9445Z" fill="white"/>
</svg>
