<svg width="101" height="22" viewBox="0 0 101 22" fill="none" xmlns="http://www.w3.org/2000/svg">
<path fill-rule="evenodd" clip-rule="evenodd" d="M10.7154 0C15.668 0 19.9892 3.41791 21.1453 8.19686L21.2472 8.66418L21.2755 8.80845L21.1829 8.92293L20.6764 9.54549L20.5823 9.66311H18.3586L17.6859 9.10954L17.6608 9.00918C16.8639 5.8217 14.0185 3.60053 10.7154 3.60053C6.78854 3.60065 3.6021 6.78852 3.6021 10.7154L3.60994 11.0807C3.80044 14.8379 6.91115 17.8285 10.7154 17.8286C14.0185 17.8286 16.8639 15.609 17.6608 12.4215L17.6859 12.3212L18.3586 11.7676H20.5823L21.1829 12.5078L21.2755 12.6223L21.2472 12.7665C20.2674 17.7881 15.8278 21.4307 10.7154 21.4307C4.80664 21.4306 0.000132579 16.6241 0 10.7154C0 4.80653 4.80656 0.000115538 10.7154 0Z" fill="white"/>
<path d="M25.9549 0.0925248L26.5822 0.719794V20.7109L25.9549 21.3382L25.8639 21.4307H23.6952L23.6026 21.3319L23.0977 20.7972L23.0114 20.7062V0.7245L23.0977 0.633543L23.6026 0.0987964L23.6952 0H25.8639L25.9549 0.0925248Z" fill="white"/>
<path fill-rule="evenodd" clip-rule="evenodd" d="M34.2239 0C38.7658 0 42.4724 3.70668 42.4725 8.24861C42.4725 11.2831 40.7855 14.0583 38.1396 15.4889L40.9827 18.3069L41.0768 18.3994V19.4031L39.5243 20.9555H38.5207L38.4282 20.8615L34.0639 16.4674H33.0823V20.7062L32.9976 20.7972L32.4911 21.3319L32.3985 21.4307H30.1952L30.1027 21.3319L29.5978 20.7972L29.5115 20.7062V0.7245L29.5978 0.633543L30.1027 0.0987964L30.1952 0H34.2239ZM33.0823 12.8967H34.2239C36.8148 12.8967 38.9018 10.8074 38.9018 8.24861C38.9017 5.6614 36.816 3.60053 34.2239 3.60053H33.0823V12.8967Z" fill="white"/>
<path fill-rule="evenodd" clip-rule="evenodd" d="M53.7508 0C58.7033 7.52987e-05 63.023 3.4181 64.1792 8.19686L64.2811 8.66418L64.3094 8.80845L64.2168 8.92293L63.7119 9.54549L63.6178 9.66311H61.3941L60.7214 9.10954L60.6963 9.00918C59.8994 5.82176 57.0539 3.60061 53.7508 3.60053C49.8239 3.60053 46.636 6.78845 46.636 10.7154L46.6454 11.0807C46.8359 14.838 49.9465 17.8286 53.7508 17.8286C57.0539 17.8285 59.8994 15.6089 60.6963 12.4215L60.7214 12.3212L61.3941 11.7676H63.6178L63.7119 11.8836L64.3094 12.6223L64.2811 12.7665C63.3012 17.788 58.8632 21.4306 53.7508 21.4307C47.842 21.4307 43.0356 16.6241 43.0355 10.7154C43.0355 4.80646 47.8419 0 53.7508 0Z" fill="white"/>
<path d="M69.0264 0.0987964L69.5314 0.633543L69.6176 0.7245V17.8286H78.3242L78.4167 17.9274L78.9216 18.4621L79.0079 18.5531V20.7062L78.9216 20.7972L78.4167 21.3319L78.3242 21.4307H66.7306L66.6381 21.3319L66.1316 20.7972L66.0469 20.7062V0.7245L66.1316 0.633543L66.6381 0.0987964L66.7306 0H68.9339L69.0264 0.0987964Z" fill="white"/>
<path fill-rule="evenodd" clip-rule="evenodd" d="M90.2862 0C96.1948 0.000366097 101 4.80669 101 10.7154L100.997 11.2125C100.993 11.3811 100.986 11.5521 100.97 11.7237L100.958 11.8476L100.865 11.9307L100.33 12.4058L100.241 12.4858H83.3972C84.1652 15.5899 86.9999 17.8286 90.2862 17.8286C92.8767 17.8284 95.2668 16.4343 96.5181 14.1591L96.5605 14.0807L96.6389 14.0368L97.1862 13.7278H99.551L99.6435 13.8737L100.208 14.7565L100.144 14.9102C98.4603 18.8584 94.6025 21.4304 90.2862 21.4307C84.3774 21.4307 79.571 16.6241 79.5709 10.7154C79.5709 4.80646 84.3773 0 90.2862 0ZM90.2862 3.60053C87.032 3.60053 84.2236 5.80892 83.4035 8.88529H97.1705C96.3772 5.81103 93.5706 3.60084 90.2862 3.60053Z" fill="white"/>
</svg>
